PathFileType	4	(X/Y/Z)	Walk5.trc
DataRate	CameraRate	NumFrames	NumMarkers	Units	OrigDataRate	OrigDataStartFrame	OrigNumFrames
200.000000	200.000000	5	59	mm	200.000000	439	531
Frame#	Times		RFHD		CLAV		RASI		RACR1		RUA1		RFA1		LUA1		LFA1		LWRR		LWRU		RTH1		LTH2		LCAR		LACR1		LFHD		RBack		RCAR		LTH4		LTH3		T10		LLFC		C7		RWRR		LASI		RWRU		RElbow		LTB2		LToe		LBHD		RBHD		LTH1		STRN		RTB1		LTB4		RTH4		RPSI		RTH2		RMT1		LMMAL		LTB1		LMT1		LCAL		LElbow		LTB3		LMT5		RTB2		RElbowM		RTH3		RLFC		LElbowM		RTB4		LLMAL		LPSI		RTB3		RCAL		RToe		RMMAL		RLMAL		RMT5
			X1	Y1	Z1	X2	Y2	Z2	X3	Y3	Z3	X4	Y4	Z4	X5	Y5	Z5	X6	Y6	Z6	X7	Y7	Z7	X8	Y8	Z8	X9	Y9	Z9	X10	Y10	Z10	X11	Y11	Z11	X12	Y12	Z12	X13	Y13	Z13	X14	Y14	Z14	X15	Y15	Z15	X16	Y16	Z16	X17	Y17	Z17	X18	Y18	Z18	X19	Y19	Z19	X20	Y20	Z20	X21	Y21	Z21	X22	Y22	Z22	X23	Y23	Z23	X24	Y24	Z24	X25	Y25	Z25	X26	Y26	Z26	X27	Y27	Z27	X28	Y28	Z28	X29	Y29	Z29	X30	Y30	Z30	X31	Y31	Z31	X32	Y32	Z32	X33	Y33	Z33	X34	Y34	Z34	X35	Y35	Z35	X36	Y36	Z36	X37	Y37	Z37	X38	Y38	Z38	X39	Y39	Z39	X40	Y40	Z40	X41	Y41	Z41	X42	Y42	Z42	X43	Y43	Z43	X44	Y44	Z44	X45	Y45	Z45	X46	Y46	Z46	X47	Y47	Z47	X48	Y48	Z48	X49	Y49	Z49	X50	Y50	Z50	X51	Y51	Z51	X52	Y52	Z52	X53	Y53	Z53	X54	Y54	Z54	X55	Y55	Z55	X56	Y56	Z56	X57	Y57	Z57	X58	Y58	Z58	X59	Y59	Z59

439	2.195	396	1423.6	64.525	382.96	1181.2	7.3623	382.12	815.4	162.02	318.84	1206	189.86	338.29	1067.7	270.94	443.17	843.03	302.7	304.34	1046.5	-253.83	317.35	844.11	-316.5	362.61	740.26	-313.26	305.05	731.12	-337.87	293.7	632.04	207.38	396.29	587.64	-163.91	346.82	690.66	-357.94	301.3	1209.1	-178.5	399.51	1434.3	-31.567	199.51	1140.5	131.01	514.72	705.52	310.07	348.78	564.96	-192.59	369.12	484.03	-164.17	157.75	1063.5	21.153	412.93	404.09	-128.34	242.61	1264.7	12.443	495.69	764.41	262.72	363.96	815.39	-157.73	451.31	736.77	311.41	353.04	939.72	304.58	459.78	233.37	-121.51	651.31	114.58	-86.464	276.6	1348.8	-55.28	272.69	1342.3	77.299	328.55	646.61	-213.36	435.95	1074.4	10.512	249.86	277.84	75.81	486.97	240.24	-66.299	275.96	551	183.23	118.39	842.88	61.221	332.85	546.7	164.28	241.53	29.117	11.476	511.62	96.121	-19.44	468.06	325.89	-69.09	618.37	95.712	-53.424	458.96	41.201	-41.35	262.13	933.75	-275.07	511.57	160.52	-66.343	575.36	59.674	-123.57	184.77	201.91	112.46	305.44	898.54	236.84	262.75	470.04	152.7	221.89	387.59	129.1	235.22	905.98	-209.37	219.58	196.92	61.891	484.61	70.873	-93.316	109.06	836.84	-43.362	194.93	116.72	48.143	74.908	44.67	32.749	299.2	29.041	49.023	148.36	73.454	-2.5298	134.35	64.003	79.945	213.96	23.227	104.8
440	2.2	401.21	1422.8	64.049	388.38	1180.3	7.1118	387.69	814.43	162.27	324.07	1205.3	189.49	343.77	1067.2	270.74	448.79	842.71	302.55	310.08	1045.3	-254.06	322.32	842.96	-317.02	366.94	738.8	-314.32	309.23	730.09	-338.69	298.37	631.5	207.4	401.07	585.82	-163.57	350.65	689.56	-359.18	306.88	1208	-178.89	404.82	1433.5	-32.048	204.8	1139.7	130.57	520.63	705.35	309.63	353.48	563.32	-192.27	373.48	482.34	-163.72	163.14	1062.6	20.712	417.77	403.01	-127.6	247.91	1263.8	11.887	501.36	764.24	262.37	369.54	813.97	-157.52	457.2	736.48	311.2	358.48	939.28	304.65	467.72	233.28	-120.88	661.39	116.91	-84.872	281.95	1347.9	-55.851	277.92	1341.4	76.722	333.6	645.05	-213.1	441.54	1073.5	10.788	251.9	277.45	75.889	494.28	240.35	-65.39	280.03	550.57	183.23	123.71	842.3	60.662	336.89	545.87	164.28	241.61	29.116	11.486	520.93	96.399	-18.997	473.93	325.75	-67.917	628.13	97.706	-52.165	469.28	40.684	-41.544	267.72	932.67	-275.21	520.23	160.98	-65.604	586.24	61.2	-122.8	186.1	202.08	112.41	310.8	897.95	237.06	266.22	469.74	152.7	224.68	387.5	129.13	240.87	904.83	-209.49	220.96	196.77	61.909	494.97	71.013	-93.175	114.9	835.89	-43.972	195.6	116.81	48.141	75.01	45.636	32.632	299.25	28.961	49.099	148.7	73.922	-2.5938	134.65	64.532	79.913	213.93	23.222	104.66
441	2.205	406.42	1421.9	63.548	393.79	1179.5	6.8275	393.22	813.52	162.58	329.28	1204.7	189.08	349.25	1066.6	270.49	454.35	842.36	302.39	315.84	1044.1	-254.33	327.36	841.79	-317.53	371.37	737.31	-315.34	313.5	729.02	-339.48	303.11	630.96	207.43	405.95	584.09	-163.23	354.59	688.43	-360.38	312.46	1206.9	-179.33	410.14	1432.6	-32.555	210.09	1138.9	130.07	526.46	705.14	309.22	358.29	561.75	-191.96	378.01	480.74	-163.27	168.55	1061.6	20.229	422.75	401.97	-126.87	253.2	1262.9	11.286	506.97	764.02	262.04	375.11	812.55	-157.33	463.02	736.17	311.01	363.91	938.84	304.68	475.35	233.1	-120.2	670.8	118.69	-83.114	287.32	1347	-56.458	283.13	1340.6	76.104	338.7	643.54	-212.83	447.13	1072.7	11.018	253.99	277.06	75.957	501.29	240.31	-64.433	284.15	550.14	183.25	129.04	841.73	60.101	340.99	545.05	164.32	241.68	29.121	11.499	529.54	96.519	-18.455	479.72	325.47	-66.736	637.15	99.244	-50.751	478.78	40.184	-41.653	273.37	931.55	-275.36	528.36	161.27	-64.781	596.33	62.403	-121.88	187.49	202.26	112.38	316.12	897.35	237.27	269.76	469.44	152.74	227.57	387.41	129.18	246.6	903.63	-209.61	222.38	196.64	61.933	504.59	71.069	-92.927	120.77	834.97	-44.569	196.3	116.92	48.146	75.115	46.665	32.545	299.3	28.891	49.172	149.04	74.427	-2.6342	134.96	65.099	79.895	213.9	23.215	104.51
442	2.21	411.63	1421.1	63.023	399.21	1178.7	6.5077	398.72	812.68	162.95	334.47	1204	188.62	354.74	1066.1	270.21	459.88	841.99	302.21	321.62	1042.9	-254.64	332.46	840.57	-318.04	375.88	735.81	-316.32	317.88	727.91	-340.24	307.9	630.42	207.49	410.93	582.49	-162.88	358.63	687.27	-361.53	318.03	1205.8	-179.8	415.46	1431.7	-33.087	215.37	1138	129.53	532.21	704.89	308.86	363.23	560.27	-191.65	382.72	479.24	-162.82	173.97	1060.6	19.704	427.87	400.96	-126.16	258.5	1261.9	10.639	512.5	763.75	261.73	380.69	811.13	-157.18	468.76	735.83	310.84	369.33	938.4	304.68	482.65	232.82	-119.47	679.53	119.88	-81.206	292.68	1346	-57.102	288.34	1339.7	75.446	343.85	642.11	-212.54	452.72	1071.9	11.198	256.14	276.67	76.014	507.98	240.12	-63.436	288.35	549.72	183.3	134.38	841.17	59.542	345.16	544.23	164.4	241.75	29.13	11.515	537.45	96.457	-17.818	485.43	325.06	-65.556	645.42	100.29	-49.198	487.46	39.68	-41.671	279.06	930.38	-275.51	535.99	161.36	-63.876	605.61	63.239	-120.83	188.96	202.45	112.37	321.4	896.74	237.46	273.36	469.15	152.82	230.57	387.33	129.25	252.41	902.4	-209.74	223.85	196.53	61.964	513.46	71.011	-92.569	126.66	834.06	-45.147	197.03	117.06	48.16	75.225	47.758	32.494	299.35	28.833	49.238	149.38	74.974	-2.6481	135.29	65.707	79.897	213.88	23.207	104.37
443	2.215	416.83	1420.3	62.474	404.63	1177.8	6.1511	404.19	811.9	163.38	339.63	1203.3	188.13	360.21	1065.5	269.88	465.35	841.61	302.02	327.42	1041.6	-255	337.63	839.32	-318.54	380.49	734.28	-317.27	322.35	726.77	-340.98	312.75	629.9	207.57	416.05	581.02	-162.54	362.78	686.08	-362.62	323.61	1204.6	-180.32	420.78	1430.8	-33.643	220.64	1137.1	128.92	537.86	704.61	308.55	368.32	558.88	-191.33	387.64	477.84	-162.37	179.41	1059.6	19.14	433.11	399.99	-125.46	263.81	1261	9.9445	517.97	763.43	261.45	386.27	809.73	-157.06	474.41	735.48	310.69	374.74	937.96	304.65	489.63	232.42	-118.7	687.59	120.46	-79.166	298.06	1345.1	-57.783	293.54	1338.8	74.749	349.09	640.76	-212.23	458.32	1071.2	11.326	258.37	276.27	76.062	514.38	239.77	-62.402	292.62	549.31	183.38	139.75	840.61	58.99	349.39	543.43	164.51	241.81	29.145	11.533	544.68	96.195	-17.089	491.06	324.53	-64.384	652.98	100.81	-47.524	495.3	39.157	-41.595	284.81	929.18	-275.67	543.11	161.24	-62.894	614.1	63.675	-119.65	190.51	202.65	112.38	326.64	896.13	237.63	277.05	468.87	152.92	233.68	387.24	129.34	258.28	901.13	-209.86	225.36	196.42	62.005	521.58	70.821	-92.104	132.57	833.18	-45.701	197.78	117.23	48.185	75.342	48.918	32.487	299.4	28.788	49.299	149.73	75.563	-2.6331	135.64	66.358	79.924	213.87	23.198	104.23
